<svg width="1200" height="750" viewBox="0 0 1200 750" fill="none" xmlns="http://www.w3.org/2000/svg">
  <rect width="1200" height="750" fill="#111114"/>
  <rect width="1200" height="750" fill="url(#g)"/>
  <path d="M228 458C242 410 276 338 338 317C403 295 766 294 835 321C897 345 940 410 957 458H228Z" fill="#e11d48"/>
  <path d="M300 458L337 374C344 358 360 348 378 348H783C803 348 821 360 828 379L860 458H300Z" fill="#fb7185"/>
  <path d="M412 362H546V430H369L398 377C401 371 406 366 412 362Z" fill="#111827"/>
  <path d="M575 362H777C789 362 800 369 805 380L826 430H575V362Z" fill="#111827"/>
  <rect x="185" y="445" width="823" height="91" rx="45.5" fill="#7f1d1d"/>
  <circle cx="340" cy="536" r="67" fill="#09090b" stroke="#f4f4f5" stroke-width="20"/>
  <circle cx="340" cy="536" r="22" fill="#f4f4f5"/>
  <circle cx="838" cy="536" r="67" fill="#09090b" stroke="#f4f4f5" stroke-width="20"/>
  <circle cx="838" cy="536" r="22" fill="#f4f4f5"/>
  <path d="M197 487H277" stroke="#fde68a" stroke-width="20" stroke-linecap="round"/>
  <path d="M917 487H997" stroke="#fecdd3" stroke-width="20" stroke-linecap="round"/>
  <text x="600" y="210" fill="white" font-family="Arial, sans-serif" font-size="88" font-weight="900" text-anchor="middle">UM HOMECAR</text>
  <text x="600" y="278" fill="#fecdd3" font-family="Arial, sans-serif" font-size="34" font-weight="700" text-anchor="middle">เพิ่มรูปรถจริงใน public/images/cars/</text>
  <defs>
    <radialGradient id="g" cx="0" cy="0" r="1" gradientUnits="userSpaceOnUse" gradientTransform="translate(954 128) rotate(139.118) scale(1094.45 1257.76)">
      <stop stop-color="#e11d48" stop-opacity="0.38"/>
      <stop offset="0.48" stop-color="#111114" stop-opacity="0"/>
      <stop offset="1" stop-color="#09090b" stop-opacity="0.8"/>
    </radialGradient>
  </defs>
</svg>
